<svg width="848" height="18" viewBox="0 0 848 18" fill="none" xmlns="http://www.w3.org/2000/svg">
<path d="M847.5 8.66016L832.5 -9.82285e-05V17.3204L847.5 8.66016ZM0 8.66016V10.1602H3.47336V8.66016V7.16016H0V8.66016ZM10.4201 8.66016V10.1602H17.3668V8.66016V7.16016H10.4201V8.66016ZM24.3135 8.66016V10.1602H31.2602V8.66016V7.16016H24.3135V8.66016ZM38.207 8.66016V10.1602H45.1537V8.66016V7.16016H38.207V8.66016ZM52.1004 8.66016V10.1602H59.0471V8.66016V7.16016H52.1004V8.66016ZM65.9938 8.66016V10.1602H72.9406V8.66016V7.16016H65.9938V8.66016ZM79.8873 8.66016V10.1602H86.834V8.66016V7.16016H79.8873V8.66016ZM93.7807 8.66016V10.1602H100.727V8.66016V7.16016H93.7807V8.66016ZM107.674 8.66016V10.1602H114.621V8.66016V7.16016H107.674V8.66016ZM121.568 8.66016V10.1602H128.514V8.66016V7.16016H121.568V8.66016ZM135.461 8.66016V10.1602H142.408V8.66016V7.16016H135.461V8.66016ZM149.355 8.66016V10.1602H156.301V8.66016V7.16016H149.355V8.66016ZM163.248 8.66016V10.1602H170.195V8.66016V7.16016H163.248V8.66016ZM177.141 8.66016V10.1602H184.088V8.66016V7.16016H177.141V8.66016ZM191.035 8.66016V10.1602H197.982V8.66016V7.16016H191.035V8.66016ZM204.928 8.66016V10.1602H211.875V8.66016V7.16016H204.928V8.66016ZM218.822 8.66016V10.1602H225.768V8.66016V7.16016H218.822V8.66016ZM232.715 8.66016V10.1602H239.662V8.66016V7.16016H232.715V8.66016ZM246.609 8.66016V10.1602H253.555V8.66016V7.16016H246.609V8.66016ZM260.502 8.66016V10.1602H267.449V8.66016V7.16016H260.502V8.66016ZM274.395 8.66016V10.1602H281.342V8.66016V7.16016H274.395V8.66016ZM288.289 8.66016V10.1602H295.236V8.66016V7.16016H288.289V8.66016ZM302.182 8.66016V10.1602H309.129V8.66016V7.16016H302.182V8.66016ZM316.076 8.66016V10.1602H323.022V8.66016V7.16016H316.076V8.66016ZM329.969 8.66016V10.1602H336.916V8.66016V7.16016H329.969V8.66016ZM343.863 8.66016V10.1602H350.809V8.66016V7.16016H343.863V8.66016ZM357.756 8.66016V10.1602H364.703V8.66016V7.16016H357.756V8.66016ZM371.649 8.66016V10.1602H378.596V8.66016V7.16016H371.649V8.66016ZM385.543 8.66016V10.1602H392.49V8.66016V7.16016H385.543V8.66016ZM399.436 8.66016V10.1602H406.383V8.66016V7.16016H399.436V8.66016ZM413.33 8.66016V10.1602H420.276V8.66016V7.16016H413.33V8.66016ZM427.223 8.66016V10.1602H434.17V8.66016V7.16016H427.223V8.66016ZM441.117 8.66016V10.1602H448.063V8.66016V7.16016H441.117V8.66016ZM455.01 8.66016V10.1602H461.957V8.66016V7.16016H455.01V8.66016ZM468.903 8.66016V10.1602H475.85V8.66016V7.16016H468.903V8.66016ZM482.797 8.66016V10.1602H489.744V8.66016V7.16016H482.797V8.66016ZM496.69 8.66016V10.1602H503.637V8.66016V7.16016H496.69V8.66016ZM510.584 8.66016V10.1602H517.531V8.66016V7.16016H510.584V8.66016ZM524.477 8.66016V10.1602H531.424V8.66016V7.16016H524.477V8.66016ZM538.371 8.66016V10.1602H545.317V8.66016V7.16016H538.371V8.66016ZM552.264 8.66016V10.1602H559.211V8.66016V7.16016H552.264V8.66016ZM566.158 8.66016V10.1602H573.104V8.66016V7.16016H566.158V8.66016ZM580.051 8.66016V10.1602H586.998V8.66016V7.16016H580.051V8.66016ZM593.944 8.66016V10.1602H600.891V8.66016V7.16016H593.944V8.66016ZM607.838 8.66016V10.1602H614.785V8.66016V7.16016H607.838V8.66016ZM621.731 8.66016V10.1602H628.678V8.66016V7.16016H621.731V8.66016ZM635.625 8.66016V10.1602H642.571V8.66016V7.16016H635.625V8.66016ZM649.518 8.66016V10.1602H656.465V8.66016V7.16016H649.518V8.66016ZM663.412 8.66016V10.1602H670.358V8.66016V7.16016H663.412V8.66016ZM677.305 8.66016V10.1602H684.252V8.66016V7.16016H677.305V8.66016ZM691.198 8.66016V10.1602H698.145V8.66016V7.16016H691.198V8.66016ZM705.092 8.66016V10.1602H712.039V8.66016V7.16016H705.092V8.66016ZM718.985 8.66016V10.1602H725.932V8.66016V7.16016H718.985V8.66016ZM732.879 8.66016V10.1602H739.825V8.66016V7.16016H732.879V8.66016ZM746.772 8.66016V10.1602H753.719V8.66016V7.16016H746.772V8.66016ZM760.666 8.66016V10.1602H767.612V8.66016V7.16016H760.666V8.66016ZM774.559 8.66016V10.1602H781.506V8.66016V7.16016H774.559V8.66016ZM788.452 8.66016V10.1602H795.399V8.66016V7.16016H788.452V8.66016ZM802.346 8.66016V10.1602H809.293V8.66016V7.16016H802.346V8.66016ZM816.239 8.66016V10.1602H823.186V8.66016V7.16016H816.239V8.66016ZM830.133 8.66016V10.1602H837.079V8.66016V7.16016H830.133V8.66016Z" fill="black"/>
</svg>
